# AST/ASF file generated using VICON BodyLanguage
# -----------------------------------------------
:version 1.10
:name VICON
:units
  mass 1.0
  length 0.45
  angle deg
:documentation
   .ast/.asf automatically generated from VICON data using
   VICON BodyBuilder and BodyLanguage model FoxedUp or BRILLIANT.MOD
:root
   order TX TY TZ RX RY RZ
   axis XYZ
   position 0 0 0  
   orientation 0 0 0 
:bonedata
  begin
     id 1 
     name lhipjoint
     direction 0.671379 -0.66392 0.329334 
     length 2.38647 
     axis 0 0 0  XYZ
  end
  begin
     id 2 
     name lfemur
     direction 0.34202 -0.939693 0  
     length 6.48179  
     axis 0 0 20  XYZ
    dof rx ry rz
    limits (-160.0 20.0)
           (-70.0 70.0)
           (-60.0 70.0)
  end
  begin
     id 3 
     name ltibia
     direction 0.34202 -0.939693 0   
     length 6.86524   
     axis 0 0 20   XYZ
    dof rx
    limits (-10.0 170.0)
  end
  begin
     id 4 
     name lfoot
     direction 0.204886 -0.562919 0.800715   
     length 1.73031   
     axis -90 7.62852e-016 20   XYZ
    dof rx rz
    limits (-45.0 90.0)
           (-70.0 20.0)
  end
  begin
     id 5 
     name ltoes
     direction 1.53548e-011 -4.21841e-011 1   
     length 0.828161   
     axis -90 7.62852e-016 20   XYZ
    dof rx
    limits (-90.0 20.0)
  end
  begin
     id 6 
     name rhipjoint
     direction -0.662732 -0.670855 0.332775   
     length 2.3618  
     axis 0 0 0  XYZ 
  end
  begin
     id 7 
     name rfemur
     direction -0.34202 -0.939693 0   
     length 6.3025   
     axis 0 0 -20   XYZ
    dof rx ry rz
    limits (-160.0 20.0)
           (-70.0 70.0)
           (-70.0 60.0)
  end
  begin
     id 8 
     name rtibia
     direction -0.34202 -0.939693 0   
     length 6.8732   
     axis 0 0 -20   XYZ
    dof rx
    limits (-10.0 170.0)
 end
 begin
     id 9 
     name rfoot
     direction -0.173856 -0.477665 0.861168   
     length 1.54784  
     axis -90 -7.62852e-016 -20   XYZ
    dof rx rz
    limits (-45.0 90.0)
           (-20.0 70.0)
  end
  begin
     id 10 
     name rtoes
     direction -1.53562e-011 -4.21802e-011 1   
     length 0.759618   
     axis -90 -7.62852e-016 -20   XYZ
    dof rx
    limits (-90.0 20.0)
  end
  begin
     id 11 
     name lowerback
     direction -0.0278357 0.999497 -0.0151789   
     length 1.97203   
     axis 0 0 0   XYZ
    dof rx ry rz
    limits (-20.0 45.0)
           (-30.0 30.0)
           (-30.0 30.0)
  end
  begin
     id 12 
     name upperback
     direction -0.00360622 0.997542 0.0699804   
     length 1.94709   
     axis 0 0 0   XYZ
    dof rx ry rz
    limits (-20.0 45.0)
           (-30.0 30.0)
           (-30.0 30.0)
  end
  begin
     id 13 
     name thorax
     direction 0.00907706 0.997048 0.0762461   
     length 1.95722   
     axis 0 0 0   XYZ
    dof rx ry rz
    limits (-20.0 45.0)
           (-30.0 30.0)
           (-30.0 30.0)
  end
  begin
     id 14 
     name lowerneck
     direction -0.0481835 0.99872 -0.0153927   
     length 1.63078   
     axis 0 0 0   XYZ
    dof rx ry rz
    limits (-20.0 45.0)
           (-30.0 30.0)
           (-30.0 30.0)
  end
  begin
     id 15 
     name upperneck
     direction 0.0859716 0.979226 -0.183644   
     length 1.62591   
     axis 0 0 0   XYZ
    dof rx ry rz
    limits (-20.0 45.0)
           (-30.0 30.0)
           (-30.0 30.0)
  end
  begin
     id 16
     name head
     direction 0.0324821 0.997629 -0.0606773  
     length 1.64811  
     axis 0 0 0   XYZ
    dof rx ry rz
    limits (-20.0 45.0)
           (-30.0 30.0)
           (-30.0 30.0)
  end
  begin
     id 17 
     name lclavicle
     direction 0.939609 0.311019 0.142835  
     length 3.70647  
     axis 0 0 0   XYZ
    dof ry rz
    limits (-20.0 10.0)
           (0.0 20.0)
  end
  begin
     id 18 
     name lhumerus
     direction 1 -4.48963e-011 -1.59838e-027   
     length 4.59207   
     axis 180 -30 -90   XYZ
    dof rx ry rz
    limits (-60.0 90.0)
           (-90.0 90.0)
           (-90.0 90.0)
  end
  begin
     id 19
     name lradius
     direction 1 -4.48957e-011 -1.3483e-026   
     length 2.98109   
     axis 180 -30 -90   XYZ
    dof rx
    limits (-10.0 170.0)
  end
  begin
     id 20
     name lwrist
     direction 1 -4.48954e-011 -3.11579e-026   
     length 1.49055   
     axis 2.00652e-014 90 90   XYZ
    dof ry
    limits (-180.0 0.0)
 end
  begin
     id 21 
     name lhand
     direction 1 -4.4911e-011 -6.23158e-026   
     length 0.480203   
     axis 3.97628e-014 90 90   XYZ
    dof rx rz
    limits (-90.0 90.0)
           (-45.0 45.0)
  end
  begin
     id 22 
     name lfingers
     direction 1 -4.48893e-011 -1.24632e-025   
     length 0.387152   
     axis 7.95256e-014 90 90   XYZ
    dof rx
    limits (0.0 90.0)
  end
  begin
     id 23
     name lthumb
     direction 0.707107 -6.35013e-011 0.707107   
     length 0.555875   
     axis -90 45 2.85299e-015   XYZ
    dof rx rz
    limits (-45.0 45.0)
           (-45.0 45.0)
  end
  begin
     id 24 
     name rclavicle
     direction -0.950396 0.30392 0.0661859   
     length 3.70894  
     axis 0 0 0   XYZ 
    dof ry rz
    limits (-10.0 20.0)
           (-20.0 0.0)
  end
  begin
     id 25 
     name rhumerus
     direction -1 -4.48957e-011 -2.96677e-027  
     length 4.76508   
     axis 180 30 90   XYZ
    dof rx ry rz
    limits (-90.0 60.0)
           (-90.0 90.0)
           (-90.0 90.0)
  end
  begin
     id 26 
     name rradius
     direction -1 -4.48974e-011 -1.44501e-026   
     length 2.78902   
     axis 180 30 90   XYZ
    dof rx
    limits (-10.0 170.0)
  end
  begin
     id 27 
     name rwrist
     direction -1 -4.48978e-011 -3.11579e-026   
     length 1.39451   
     axis 2.00652e-014 -90 -90   XYZ
    dof ry
    limits (-180.0 0.0)
  end
  begin
     id 28
     name rhand
     direction -1 -4.48956e-011 -6.23158e-026   
     length 0.721303   
     axis 3.97628e-014 -90 -90   XYZ
    dof rx rz
    limits (-90.0 90.0)
           (-45.0 45.0)
  end
  begin
     id 29
     name rfingers
     direction -1 -4.4899e-011 -1.24632e-025   
     length 0.581533   
     axis 7.95256e-014 -90 -90   XYZ
    dof rx
    limits (0.0 90.0)
  end
  begin
     id 30
     name rthumb
     direction -0.707107 -6.34911e-011 0.707107   
     length 0.834968   
     axis -90 -45 -2.85299e-015   XYZ
    dof rx rz
    limits (-45.0 45.0)
           (-45.0 45.0)
  end
:hierarchy
  begin
    root lhipjoint rhipjoint lowerback
    lhipjoint lfemur
    lfemur ltibia
    ltibia lfoot
    lfoot ltoes
    rhipjoint rfemur
    rfemur rtibia
    rtibia rfoot
    rfoot rtoes
    lowerback upperback
    upperback thorax
    thorax lowerneck lclavicle rclavicle
    lowerneck upperneck
    upperneck head
    lclavicle lhumerus
    lhumerus lradius
    lradius lwrist
    lwrist lhand lthumb
    lhand lfingers
    rclavicle rhumerus
    rhumerus rradius
    rradius rwrist
    rwrist rhand rthumb
    rhand rfingers
  end

#!OML:ASF I:\salsa\salsa 7_09\Patient 1\Session 1\dancerfemale.ASF
:FULLY-SPECIFIED
:DEGREES
648
root 5.00084 15.5396 -0.521756 521.159 -118.814 -879.534
lowerback 17.5305 2.17134 -7.40611
upperback -6.50064 0.354153 -3.98982
thorax -17.6233 0.608381 -0.566231
lowerneck 9.27524 -5.9855 -21.5511
upperneck -3.02835 -9.91729 25.5289
head 0.0356983 -5.61921 11.9688
rclavicle -1.14301e-015 -3.93594e-014
rhumerus -51.8571 10.1356 -101.014
rradius 104.266
rwrist 9.83992
rhand 10.1625 26.1858
rfingers 7.12502
rthumb 35.2805 -0.30429
lclavicle -1.14301e-015 -3.93594e-014
lhumerus -30.0891 -5.25732 85.256
lradius 118.434
lwrist -23.4727
lhand 31.8791 -343.883
lfingers 7.12502
lthumb 55.3879 753.972
rfemur -28.1407 8.15138 7.37363
rtibia 69.9425
rfoot -24.5667 1.35172
rtoes 49.1282
lfemur -5.35976 13.6089 -36.7033
ltibia 31.3456
lfoot -23.5071 20.7228
ltoes 9.36637
649
root 5.09243 15.5602 -0.511442 522.371 -118.296 -879.981
lowerback 16.7608 1.47527 -6.56468
upperback -6.78828 -0.35954 -4.1684
thorax -17.4404 0.181169 -1.00397
lowerneck 8.90308 -5.64644 -21.9192
upperneck -2.73981 -9.4734 26.0268
head 0.113539 -5.39146 12.2271
rclavicle -2.35063e-014 1.35174e-014
rhumerus -53.2211 10.731 -100.231
rradius 103.959
rwrist 9.65298
rhand 10.1833 26.7272
rfingers 7.12502
rthumb 35.3002 0.241732
lclavicle -2.35063e-014 1.35174e-014
lhumerus -29.1379 -4.04592 85.7658
lradius 119.333
lwrist -22.9689
lhand 32.8269 -341.608
lfingers 7.12502
lthumb 56.2289 755.602
rfemur -27.5853 6.83143 7.72549
rtibia 70.6361
rfoot -23.9041 1.41281
rtoes 49.6433
lfemur -6.71259 14.198 -36.7179
ltibia 31.5352
lfoot -23.6581 20.0178
ltoes 10.3288
650
root 5.16869 15.5917 -0.502821 524.767 -117.594 -881.956
lowerback 16.1556 0.745431 -5.1822
upperback -7.08597 -0.971313 -4.08169
thorax -17.3957 -0.237798 -1.48728
lowerneck 8.51487 -5.28383 -22.1673
upperneck -2.3565 -8.99182 26.4018
head 0.192733 -5.13916 12.4201
rclavicle -3.17062e-014 3.10104e-014
rhumerus -54.5336 11.3519 -99.4951
rradius 103.77
rwrist 9.47084
rhand 10.352 27.4541
rfingers 7.12502
rthumb 35.4601 1.00676
lclavicle -3.17062e-014 3.10104e-014
lhumerus -28.6079 -2.81754 86.1761
lradius 120.187
lwrist -22.8721
lhand 33.6571 -339.793
lfingers 7.12502
lthumb 56.9614 756.825
rfemur -26.4965 5.61591 9.06674
rtibia 70.7039
rfoot -22.8018 1.2626
rtoes 50.2939
lfemur -7.96055 14.8902 -35.8716
ltibia 31.9302
lfoot -23.8227 19.3375
ltoes 10.9823
651
root 5.23262 15.6333 -0.497243 528.557 -116.75 -885.875
lowerback 15.7678 0.00394846 -3.07235
upperback -7.21677 -1.39568 -3.71806
thorax -17.3126 -0.631314 -2.12542
lowerneck 8.15591 -4.95435 -22.3538
upperneck -2.06973 -8.53867 26.7634
head 0.240929 -4.90274 12.6008
rclavicle 6.02815e-014 3.26007e-014
rhumerus -55.5859 11.9101 -98.7217
rradius 103.735
rwrist 9.32115
rhand 10.722 28.31
rfingers 7.12502
rthumb 35.8108 1.94726
lclavicle 6.02815e-014 3.26007e-014
lhumerus -28.3844 -1.80473 86.3357
lradius 121.121
lwrist -22.6971
lhand 34.6692 -338.338
lfingers 7.12502
lthumb 57.8486 757.519
rfemur -24.7011 4.51012 11.5383
rtibia 70.189
rfoot -21.9539 0.42922
rtoes 49.9021
lfemur -8.90827 15.5006 -33.9896
ltibia 32.5519
lfoot -23.79 18.8704
ltoes 10.9757
652
root 5.28768 15.7081 -0.490602 532.66 -116.023 -890.106
lowerback 15.2891 -0.706178 -1.05038
upperback -7.27054 -1.79685 -3.26759
thorax -17.1101 -0.998294 -2.62814
lowerneck 7.81402 -4.63401 -22.484
upperneck -1.9195 -8.07036 27.0945
head 0.23832 -4.65929 12.7644
rclavicle 4.27387e-015 1.70955e-014
rhumerus -56.371 12.4793 -97.9336
rradius 103.978
rwrist 8.85735
rhand 10.942 28.8833
rfingers 7.12502
rthumb 36.0193 2.57154
lclavicle 4.27387e-015 1.70955e-014
lhumerus -28.3935 -0.746169 86.22
lradius 122.011
lwrist -22.5195
lhand 34.8663 -337.096
lfingers 7.12502
lthumb 58.0207 758.607
rfemur -22.5871 3.49387 14.1218
rtibia 69.0951
rfoot -21.3331 -0.980523
rtoes 48.9496
lfemur -9.66007 15.8255 -32.0538
ltibia 32.8652
lfoot -24.2851 18.5156
ltoes 12.3101
653
root 5.34008 15.7463 -0.499834 534.961 -115.382 -891.907
lowerback 14.5762 -1.205 -0.377342
upperback -7.51653 -2.287 -3.03768
thorax -16.9931 -1.28085 -2.60616
lowerneck 7.61538 -4.29304 -22.4961
upperneck -1.84757 -7.57315 27.3308
head 0.169097 -4.40856 12.8776
rclavicle -5.81942e-014 -2.42517e-014
rhumerus -57.2076 12.9289 -97.1832
rradius 104.444
rwrist 8.21205
rhand 10.8203 29.5959
rfingers 7.12502
rthumb 35.9039 3.25582
lclavicle -5.81942e-014 -2.42517e-014
lhumerus -28.8199 0.288952 85.7726
lradius 122.809
lwrist -22.2637
lhand 34.4551 -336.202
lfingers 7.12502
lthumb 57.6615 759.82
rfemur -21.1246 2.50847 15.4628
rtibia 68.0574
rfoot -20.7992 -1.56724
rtoes 47.5802
lfemur -10.7019 15.907 -31.4472
ltibia 32.8342
lfoot -25.2098 18.3625
ltoes 14.7116
654
root 5.38077 15.7895 -0.515722 535.404 -114.597 -891.298
lowerback 13.6251 -1.50861 -0.940711
upperback -7.98152 -2.82958 -2.97751
thorax -16.9511 -1.47127 -2.07787
lowerneck 7.40612 -3.94734 -22.4816
upperneck -1.52725 -7.10176 27.3709
head 0.164566 -4.16083 12.901
rclavicle 2.27608e-014 -7.95139e-015
rhumerus -58.0192 13.2851 -96.5602
rradius 104.9
rwrist 7.48299
rhand 10.6813 30.1738
rfingers 7.12502
rthumb 35.7722 3.80163
lclavicle 2.27608e-014 -7.95139e-015
lhumerus -29.7344 1.50027 84.9563
lradius 123.5
lwrist -22.1296
lhand 34.6203 -335.253
lfingers 7.12502
lthumb 57.8059 760.641
rfemur -20.136 1.47965 15.5595
rtibia 66.8706
rfoot -20.1745 -1.01346
rtoes 46.0114
lfemur -11.8049 15.8339 -32.025
ltibia 32.3304
lfoot -25.7378 18.5825
ltoes 16.1771
655
root 5.40988 15.8342 -0.538471 535.048 -113.607 -889.649
lowerback 12.4187 -1.6387 -2.1138
upperback -8.53128 -3.2466 -2.88969
thorax -16.794 -1.53713 -1.2286
lowerneck 7.09484 -3.68734 -22.4334
upperneck -0.903243 -6.77069 27.1044
head 0.285258 -3.96332 12.78
rclavicle 8.94531e-015 3.18055e-015
rhumerus -58.6497 13.3773 -95.7303
rradius 105.334
rwrist 6.79501
rhand 10.5794 30.7476
rfingers 7.12502
rthumb 35.6757 4.35207
lclavicle 8.94531e-015 3.18055e-015
lhumerus -30.7534 2.76639 83.9279
lradius 123.974
lwrist -21.7949
lhand 35.84 -333.717
lfingers 7.12502
lthumb 58.8665 761.201
rfemur -19.3925 0.656872 15.2485
rtibia 65.4982
rfoot -19.415 -0.0543021
rtoes 44.7769
lfemur -12.992 15.651 -33.0258
ltibia 31.7318
lfoot -26.0027 19.1373
ltoes 16.862
656
root 5.43471 15.8803 -0.563834 535.276 -112.413 -888.654
lowerback 11.1615 -1.6733 -2.93378
upperback -9.07375 -3.43023 -2.74385
thorax -16.5949 -1.53387 -0.58879
lowerneck 6.76668 -3.50201 -22.267
upperneck -0.237782 -6.53793 26.7758
head 0.441774 -3.81344 12.6077
rclavicle 1.21259e-014 7.15625e-015
rhumerus -59.11 13.1382 -94.8693
rradius 105.876
rwrist 6.23991
rhand 10.6179 31.4643
rfingers 7.12502
rthumb 35.7122 5.07764
lclavicle 1.21259e-014 7.15625e-015
lhumerus -31.7481 3.91319 82.4994
lradius 124.206
lwrist -21.2877
lhand 37.1428 -332.585
lfingers 7.12502
lthumb 59.9875 761.208
rfemur -18.5575 0.193752 15.3819
rtibia 63.6371
rfoot -18.4715 1.06652
rtoes 44.5788
lfemur -14.2227 15.4701 -33.6347
ltibia 31.2132
lfoot -25.9753 19.7941
ltoes 17.2035
657
root 5.4556 15.9279 -0.591314 536.957 -110.972 -889.443
lowerback 10.1103 -1.65249 -3.06507
upperback -9.5719 -3.37451 -2.41279
thorax -16.4952 -1.48068 -0.183337
lowerneck 6.45858 -3.32269 -22.0348
upperneck 0.404376 -6.31075 26.4771
head 0.590508 -3.66993 12.4377
rclavicle 3.51849e-014 2.46493e-014
rhumerus -59.4737 12.6062 -94.0736
rradius 106.521
rwrist 5.85624
rhand 10.7921 32.289
rfingers 7.12502
rthumb 35.8772 5.94243
lclavicle 3.51849e-014 2.46493e-014
lhumerus -32.8847 4.99088 80.6239
lradius 124.179
lwrist -21.0729
lhand 38.1329 -332.172
lfingers 7.12502
lthumb 60.8302 760.706
rfemur -17.3235 0.143412 16.3895
rtibia 61.1597
rfoot -17.5468 1.76218
rtoes 44.2581
lfemur -15.4683 15.4713 -33.3826
ltibia 31.1389
lfoot -25.9534 20.474
ltoes 17.2905
658
root 5.47461 15.9734 -0.621637 540.072 -109.35 -892.036
lowerback 9.30096 -1.54193 -2.73149
upperback -9.92991 -3.07872 -1.86489
thorax -16.3894 -1.34772 0.15841
lowerneck 6.02949 -3.2067 -21.6701
upperneck 1.02663 -6.126 25.9569
head 0.757954 -3.53451 12.1518
rclavicle 3.24019e-014 3.49861e-014
rhumerus -59.5245 12.0331 -93.2157
rradius 107.136
rwrist 5.25416
rhand 10.7881 32.9636
rfingers 7.12502
rthumb 35.8734 6.61611
lclavicle 3.24019e-014 3.49861e-014
lhumerus -33.9957 6.06581 78.4263
lradius 124.059
lwrist -21.2164
lhand 39.4715 -332.251
lfingers 7.12502
lthumb 61.9557 759.298
rfemur -15.6793 0.402796 18.0575
rtibia 58.1125
rfoot -16.5626 2.16943
rtoes 45.169
lfemur -16.6991 15.801 -32.4018
ltibia 31.589
lfoot -26.2268 21.1047
ltoes 17.4241
659
root 5.49732 16.0053 -0.65762 544.299 -107.526 -895.931
lowerback 8.60068 -1.28676 -2.22415
upperback -10.1476 -2.54411 -1.23611
thorax -16.1901 -1.11639 0.445444
lowerneck 5.55883 -3.13068 -21.1125
upperneck 1.46229 -5.93931 25.2889
head 0.874414 -3.39418 11.7753
rclavicle -3.08116e-015 1.11319e-014
rhumerus -59.1955 11.3361 -92.3669
rradius 107.679
rwrist 4.49016
rhand 10.7454 33.5522
rfingers 7.12502
rthumb 35.833 7.19486
lclavicle -3.08116e-015 1.11319e-014
lhumerus -34.8759 7.05268 75.8339
lradius 123.744
lwrist -21.7233
lhand 41.3108 -332.79
lfingers 7.12502
lthumb 63.4725 756.741
rfemur -13.8686 0.868027 19.9669
rtibia 54.6582
rfoot -16.183 1.90312
rtoes 45.2212
lfemur -17.9985 16.4056 -31.0788
ltibia 32.4705
lfoot -26.842 21.717
ltoes 17.7928
660
root 5.52166 16.0228 -0.697782 548.497 -105.691 -899.758
lowerback 7.84243 -0.925647 -1.97797
upperback -10.347 -1.92951 -0.692864
thorax -15.9346 -0.826025 0.768952
lowerneck 5.41613 -2.99594 -20.5058
upperneck 1.58122 -5.67936 24.6577
head 0.831218 -3.24171 11.4222
rclavicle 9.93923e-016 -1.43125e-014
rhumerus -58.7974 10.536 -91.6708
rradius 108.257
rwrist 3.70393
rhand 10.7576 34.0779
rfingers 7.12502
rthumb 35.8446 7.72336
lclavicle 9.93923e-016 -1.43125e-014
lhumerus -35.7555 7.76875 72.821
lradius 123.429
lwrist -22.2301
lhand 43.3757 -333.484
lfingers 7.12502
lthumb 65.1274 753.479
rfemur -12.0812 1.45277 21.4704
rtibia 50.9685
rfoot -16.5307 1.19747
rtoes 45.3825
lfemur -19.4553 17.2288 -30.0609
ltibia 33.6768
lfoot -27.4089 22.3454
ltoes 17.9606
661
root 5.54357 16.0234 -0.741965 552.458 -103.945 -903.438
lowerback 7.14686 -0.543481 -1.94905
upperback -10.51 -1.33721 -0.221029
thorax -15.6831 -0.525458 1.14726
lowerneck 5.45174 -2.81092 -19.8727
upperneck 1.59084 -5.35833 23.9334
head 0.713454 -3.06886 11.0404
rclavicle -1.88845e-015 -1.63003e-014
rhumerus -58.392 9.76849 -91.2176
rradius 108.799
rwrist 3.1054
rhand 10.3938 34.6284
rfingers 7.12502
rthumb 35.4998 8.19054
lclavicle -1.88845e-015 -1.63003e-014
lhumerus -36.7455 8.35191 69.3243
lradius 123.068
lwrist -22.742
lhand 45.697 -334.469
lfingers 7.12502
lthumb 66.9142 749.159
rfemur -10.1294 2.08077 22.601
rtibia 47.0777
rfoot -17.2372 0.469537
rtoes 44.962
lfemur -20.9093 17.9308 -29.3197
ltibia 35.2217
lfoot -27.8877 23.3445
ltoes 17.7915
